<svg width="270" height="141" viewBox="0 0 270 141" fill="none" xmlns="http://www.w3.org/2000/svg">
<g filter="url(#filter0_ii_4001_463)">
<path d="M127.781 0C144.229 5.57977e-05 158.742 7.86127 167.515 19.9023C172.739 17.4068 178.545 16.0342 184.737 16.0342C200.992 16.0342 214.924 25.7049 220.729 39.3682C222.987 34.5642 227.954 31.2568 233.76 31.2568C240.597 31.2569 246.273 35.8743 247.692 42.0508C249.885 40.6782 252.53 39.9297 255.304 39.9297C263.237 39.9297 269.623 46.1055 269.559 53.7168C269.559 61.3283 263.173 67.5048 255.304 67.5049H254.981C255.175 68.815 255.304 70.1255 255.304 71.498C255.304 84.787 244.144 95.5186 230.47 95.5186C230.018 95.5185 229.567 95.4561 229.115 95.4561C228.341 110.367 215.57 122.283 199.896 122.283C193.316 122.283 187.188 120.099 182.286 116.543C176.739 130.83 162.548 141 145.842 141C131.479 141 118.955 133.512 112.194 122.335C110.649 122.911 108.977 123.228 107.231 123.228C104.285 123.228 101.548 122.331 99.2783 120.796C93.6491 124.757 86.7308 127.087 79.21 127.087C60.3107 127.087 45.0234 112.301 45.0234 94.0205V93.7715C42.3789 95.2687 39.2827 96.1416 35.9932 96.1416C26.2532 96.1416 18.3193 88.4677 18.3193 79.0469C18.3194 77.4873 18.5779 75.928 18.9648 74.4932H18.3193C8.19239 74.4932 4.72591e-05 66.5695 0 56.7744C0 46.9793 8.19236 39.0557 18.3193 39.0557C23.6731 39.0557 28.5111 41.3022 31.8652 44.8584C35.4129 41.8637 39.8634 39.8047 44.8301 39.2432C44.5721 37.4339 44.3789 35.5621 44.3789 33.6904C44.3789 15.0985 59.9882 0.000149931 79.21 0C87.5954 0 95.2717 2.86974 101.271 7.61133C108.882 2.80743 117.977 0 127.781 0Z" fill="white"/>
</g>
<defs>
<filter id="filter0_ii_4001_463" x="0" y="-29.4731" width="269.559" height="170.473" filterUnits="userSpaceOnUse" color-interpolation-filters="sRGB">
<feFlood flood-opacity="0" result="BackgroundImageFix"/>
<feBlend mode="normal" in="SourceGraphic" in2="BackgroundImageFix" result="shape"/>
<feColorMatrix in="SourceAlpha" type="matrix" values="0 0 0 0 0 0 0 0 0 0 0 0 0 0 0 0 0 0 127 0" result="hardAlpha"/>
<feOffset dy="-29.4731"/>
<feGaussianBlur stdDeviation="32.558"/>
<feComposite in2="hardAlpha" operator="arithmetic" k2="-1" k3="1"/>
<feColorMatrix type="matrix" values="0 0 0 0 0.65098 0 0 0 0 0.847059 0 0 0 0 1 0 0 0 1 0"/>
<feBlend mode="normal" in2="shape" result="effect1_innerShadow_4001_463"/>
<feColorMatrix in="SourceAlpha" type="matrix" values="0 0 0 0 0 0 0 0 0 0 0 0 0 0 0 0 0 0 127 0" result="hardAlpha"/>
<feOffset dy="-14.7366"/>
<feGaussianBlur stdDeviation="24.4185"/>
<feComposite in2="hardAlpha" operator="arithmetic" k2="-1" k3="1"/>
<feColorMatrix type="matrix" values="0 0 0 0 0.65098 0 0 0 0 0.847059 0 0 0 0 1 0 0 0 1 0"/>
<feBlend mode="normal" in2="effect1_innerShadow_4001_463" result="effect2_innerShadow_4001_463"/>
</filter>
</defs>
</svg>
